<svg width="82" height="40" viewBox="0 0 82 40" fill="none" xmlns="http://www.w3.org/2000/svg">
<rect x="0.7" y="11.7" width="3.61238" height="15.6" rx="1.80619" stroke="#EB2E96" stroke-width="1.4"/>
<rect x="6.65215" y="11.993" width="3.61238" height="3.28966" rx="1.64483" stroke="#EB2E96" stroke-width="1.4"/>
<rect x="6.65215" y="17.8553" width="3.61238" height="3.28966" rx="1.64483" stroke="#EB2E96" stroke-width="1.4"/>
<path d="M14.4858 16.8182V27H12.9993V16.8182H14.4858ZM19.2679 27.169C18.784 27.169 18.3465 27.0795 17.9554 26.9006C17.5643 26.7183 17.2544 26.4548 17.0257 26.1101C16.8004 25.7654 16.6877 25.3428 16.6877 24.8423C16.6877 24.4115 16.7705 24.0568 16.9362 23.7784C17.102 23.5 17.3257 23.2796 17.6074 23.1172C17.8891 22.9548 18.204 22.8321 18.552 22.7493C18.9 22.6664 19.2547 22.6035 19.6159 22.5604C20.0733 22.5073 20.4445 22.4643 20.7296 22.4311C21.0146 22.3946 21.2218 22.3366 21.351 22.2571C21.4803 22.1776 21.5449 22.0483 21.5449 21.8693V21.8345C21.5449 21.4003 21.4223 21.0639 21.177 20.8253C20.9351 20.5866 20.5738 20.4673 20.0932 20.4673C19.5927 20.4673 19.1983 20.5784 18.91 20.8004C18.6249 21.0192 18.4277 21.2628 18.3183 21.5312L16.9213 21.2131C17.087 20.7491 17.329 20.3745 17.6472 20.0895C17.9687 19.8011 18.3382 19.5923 18.7558 19.4631C19.1735 19.3305 19.6126 19.2642 20.0733 19.2642C20.3782 19.2642 20.7014 19.3007 21.0428 19.3736C21.3875 19.4432 21.709 19.5724 22.0073 19.7614C22.3089 19.9503 22.5558 20.2204 22.748 20.5717C22.9403 20.9197 23.0364 21.3722 23.0364 21.929V27H21.5847V25.956H21.525C21.4289 26.1482 21.2847 26.3371 21.0925 26.5227C20.9003 26.7083 20.6533 26.8625 20.3517 26.9851C20.0501 27.1077 19.6888 27.169 19.2679 27.169ZM19.5911 25.9759C20.0021 25.9759 20.3534 25.8946 20.645 25.7322C20.94 25.5698 21.1638 25.3577 21.3162 25.0959C21.472 24.8307 21.5499 24.5473 21.5499 24.2457V23.2614C21.4968 23.3144 21.3941 23.3641 21.2416 23.4105C21.0925 23.4536 20.9218 23.4917 20.7296 23.5249C20.5373 23.5547 20.3501 23.5829 20.1678 23.6094C19.9855 23.6326 19.833 23.6525 19.7104 23.669C19.422 23.7055 19.1585 23.7668 18.9199 23.853C18.6846 23.9392 18.4957 24.0634 18.3531 24.2259C18.2139 24.3849 18.1443 24.5971 18.1443 24.8622C18.1443 25.2301 18.2802 25.5085 18.552 25.6974C18.8238 25.883 19.1701 25.9759 19.5911 25.9759ZM31.2986 21.228L29.9513 21.4666C29.895 21.2943 29.8055 21.1302 29.6829 20.9744C29.5635 20.8187 29.4011 20.6911 29.1956 20.5916C28.9901 20.4922 28.7333 20.4425 28.425 20.4425C28.0041 20.4425 27.6528 20.5369 27.3711 20.7259C27.0893 20.9115 26.9485 21.1518 26.9485 21.4467C26.9485 21.7019 27.0429 21.9074 27.2319 22.0632C27.4208 22.219 27.7257 22.3466 28.1466 22.446L29.3597 22.7244C30.0624 22.8868 30.586 23.1371 30.9307 23.4751C31.2754 23.8132 31.4478 24.2524 31.4478 24.7926C31.4478 25.25 31.3152 25.6577 31.05 26.0156C30.7882 26.3703 30.422 26.6487 29.9513 26.8509C29.484 27.053 28.9421 27.1541 28.3256 27.1541C27.4705 27.1541 26.7728 26.9718 26.2326 26.6072C25.6923 26.2393 25.3609 25.7173 25.2383 25.0412L26.675 24.8224C26.7645 25.197 26.9485 25.4804 27.2269 25.6726C27.5053 25.8615 27.8682 25.956 28.3157 25.956C28.8029 25.956 29.1923 25.8549 29.484 25.6527C29.7757 25.4472 29.9215 25.197 29.9215 24.902C29.9215 24.6634 29.832 24.4628 29.653 24.3004C29.4774 24.138 29.2072 24.0154 28.8427 23.9325L27.55 23.6491C26.8374 23.4867 26.3105 23.2282 25.9691 22.8736C25.631 22.5189 25.462 22.0698 25.462 21.5263C25.462 21.0755 25.5879 20.6811 25.8398 20.343C26.0917 20.005 26.4397 19.7415 26.8838 19.5526C27.328 19.3603 27.8367 19.2642 28.4101 19.2642C29.2354 19.2642 29.885 19.4432 30.359 19.8011C30.833 20.1558 31.1462 20.6314 31.2986 21.228ZM35.1287 22.4659V27H33.6422V16.8182H35.1088V20.6065H35.2033C35.3822 20.1955 35.6557 19.8691 36.0236 19.6271C36.3915 19.3852 36.8721 19.2642 37.4653 19.2642C37.989 19.2642 38.4464 19.3719 38.8375 19.5874C39.2319 19.8028 39.5368 20.1243 39.7523 20.5518C39.971 20.9761 40.0804 21.5064 40.0804 22.1428V27H38.5939V22.3217C38.5939 21.7616 38.4497 21.3274 38.1614 21.0192C37.873 20.7076 37.472 20.5518 36.9582 20.5518C36.6069 20.5518 36.292 20.6264 36.0136 20.7756C35.7385 20.9247 35.5214 21.1435 35.3624 21.4318C35.2066 21.7169 35.1287 22.0616 35.1287 22.4659ZM44.1106 22.4659V27H42.6241V19.3636H44.0509V20.6065H44.1454C44.321 20.2022 44.5961 19.8774 44.9706 19.6321C45.3485 19.3868 45.8241 19.2642 46.3975 19.2642C46.9179 19.2642 47.3736 19.3736 47.7647 19.5923C48.1558 19.8078 48.459 20.1293 48.6745 20.5568C48.8899 20.9844 48.9976 21.513 48.9976 22.1428V27H47.5111V22.3217C47.5111 21.7682 47.367 21.3357 47.0786 21.0241C46.7902 20.7093 46.3942 20.5518 45.8904 20.5518C45.5457 20.5518 45.2391 20.6264 44.9706 20.7756C44.7055 20.9247 44.495 21.1435 44.3393 21.4318C44.1868 21.7169 44.1106 22.0616 44.1106 22.4659ZM54.7679 27.1541C54.052 27.1541 53.4272 26.9901 52.8936 26.6619C52.36 26.3338 51.9457 25.8748 51.6507 25.2848C51.3557 24.6948 51.2082 24.0054 51.2082 23.2166C51.2082 22.4245 51.3557 21.7318 51.6507 21.1385C51.9457 20.5452 52.36 20.0845 52.8936 19.7564C53.4272 19.4283 54.052 19.2642 54.7679 19.2642C55.4838 19.2642 56.1085 19.4283 56.6422 19.7564C57.1758 20.0845 57.5901 20.5452 57.885 21.1385C58.18 21.7318 58.3275 22.4245 58.3275 23.2166C58.3275 24.0054 58.18 24.6948 57.885 25.2848C57.5901 25.8748 57.1758 26.3338 56.6422 26.6619C56.1085 26.9901 55.4838 27.1541 54.7679 27.1541ZM54.7728 25.9062C55.2368 25.9062 55.6213 25.7836 55.9262 25.5384C56.2312 25.2931 56.4565 24.9666 56.6024 24.5589C56.7515 24.1513 56.8261 23.7022 56.8261 23.2116C56.8261 22.7244 56.7515 22.277 56.6024 21.8693C56.4565 21.4583 56.2312 21.1286 55.9262 20.88C55.6213 20.6314 55.2368 20.5071 54.7728 20.5071C54.3055 20.5071 53.9177 20.6314 53.6095 20.88C53.3046 21.1286 53.0775 21.4583 52.9284 21.8693C52.7825 22.277 52.7096 22.7244 52.7096 23.2116C52.7096 23.7022 52.7825 24.1513 52.9284 24.5589C53.0775 24.9666 53.3046 25.2931 53.6095 25.5384C53.9177 25.7836 54.3055 25.9062 54.7728 25.9062ZM64.1114 19.3636V20.5568H59.9403V19.3636H64.1114ZM61.0589 17.5341H62.5454V24.7578C62.5454 25.0462 62.5885 25.2633 62.6746 25.4091C62.7608 25.5516 62.8718 25.6494 63.0077 25.7024C63.1469 25.7521 63.2977 25.777 63.4601 25.777C63.5795 25.777 63.6839 25.7687 63.7734 25.7521C63.8628 25.7356 63.9324 25.7223 63.9822 25.7124L64.2506 26.9403C64.1645 26.9735 64.0418 27.0066 63.8827 27.0398C63.7236 27.0762 63.5248 27.0961 63.2861 27.0994C62.895 27.1061 62.5305 27.0365 62.1924 26.8906C61.8543 26.7448 61.5809 26.5194 61.3721 26.2145C61.1633 25.9096 61.0589 25.5268 61.0589 25.0661V17.5341ZM69.5249 27.1541C68.7726 27.1541 68.1246 26.9934 67.581 26.6719C67.0408 26.3471 66.6232 25.8913 66.3282 25.3047C66.0365 24.7147 65.8907 24.0237 65.8907 23.2315C65.8907 22.4493 66.0365 21.7599 66.3282 21.1634C66.6232 20.5668 67.0342 20.1011 67.5612 19.7663C68.0915 19.4316 68.7113 19.2642 69.4205 19.2642C69.8514 19.2642 70.269 19.3355 70.6734 19.478C71.0777 19.6205 71.4407 19.8442 71.7622 20.1491C72.0836 20.4541 72.3372 20.8501 72.5228 21.3374C72.7084 21.8213 72.8012 22.4096 72.8012 23.1023V23.6293H66.7309V22.5156H71.3445C71.3445 22.1245 71.265 21.7782 71.1059 21.4766C70.9468 21.1716 70.7231 20.9313 70.4347 20.7557C70.1497 20.58 69.8149 20.4922 69.4305 20.4922C69.0129 20.4922 68.6483 20.5949 68.3367 20.8004C68.0285 21.0026 67.7898 21.2678 67.6208 21.5959C67.4551 21.9207 67.3722 22.2737 67.3722 22.6548V23.5249C67.3722 24.0353 67.4617 24.4695 67.6407 24.8274C67.823 25.1854 68.0765 25.4588 68.4014 25.6477C68.7262 25.8333 69.1057 25.9261 69.5398 25.9261C69.8216 25.9261 70.0784 25.8864 70.3104 25.8068C70.5425 25.724 70.743 25.6013 70.912 25.4389C71.081 25.2765 71.2103 25.076 71.2998 24.8374L72.7068 25.0909C72.5941 25.5052 72.3919 25.8681 72.1002 26.1797C71.8119 26.4879 71.4489 26.7282 71.0114 26.9006C70.5773 27.0696 70.0818 27.1541 69.5249 27.1541ZM80.7328 21.228L79.3855 21.4666C79.3292 21.2943 79.2397 21.1302 79.1171 20.9744C78.9978 20.8187 78.8354 20.6911 78.6299 20.5916C78.4244 20.4922 78.1675 20.4425 77.8593 20.4425C77.4383 20.4425 77.087 20.5369 76.8053 20.7259C76.5236 20.9115 76.3827 21.1518 76.3827 21.4467C76.3827 21.7019 76.4772 21.9074 76.6661 22.0632C76.855 22.219 77.1599 22.3466 77.5809 22.446L78.7939 22.7244C79.4966 22.8868 80.0202 23.1371 80.3649 23.4751C80.7096 23.8132 80.882 24.2524 80.882 24.7926C80.882 25.25 80.7494 25.6577 80.4843 26.0156C80.2224 26.3703 79.8562 26.6487 79.3855 26.8509C78.9182 27.053 78.3763 27.1541 77.7598 27.1541C76.9047 27.1541 76.207 26.9718 75.6668 26.6072C75.1265 26.2393 74.7951 25.7173 74.6725 25.0412L76.1093 24.8224C76.1987 25.197 76.3827 25.4804 76.6611 25.6726C76.9395 25.8615 77.3024 25.956 77.7499 25.956C78.2371 25.956 78.6265 25.8549 78.9182 25.6527C79.2099 25.4472 79.3557 25.197 79.3557 24.902C79.3557 24.6634 79.2662 24.4628 79.0872 24.3004C78.9116 24.138 78.6415 24.0154 78.2769 23.9325L76.9843 23.6491C76.2717 23.4867 75.7447 23.2282 75.4033 22.8736C75.0652 22.5189 74.8962 22.0698 74.8962 21.5263C74.8962 21.0755 75.0221 20.6811 75.274 20.343C75.5259 20.005 75.8739 19.7415 76.3181 19.5526C76.7622 19.3603 77.271 19.2642 77.8443 19.2642C78.6696 19.2642 79.3193 19.4432 79.7932 19.8011C80.2672 20.1558 80.5804 20.6314 80.7328 21.228Z" fill="url(#paint0_linear_794_432)"/>
<defs>
<linearGradient id="paint0_linear_794_432" x1="12" y1="21.5" x2="82" y2="21.5" gradientUnits="userSpaceOnUse">
<stop stop-color="#EB2E96"/>
<stop offset="1" stop-color="#6551D6"/>
</linearGradient>
</defs>
</svg>
